<?xml version="1.0" encoding="utf-8" ?><svg fill="white" xmlns="http://www.w3.org/2000/svg" xmlns:xlink="http://www.w3.org/1999/xlink" width="1024" height="1024" viewBox="0 0 1024 1024"><path d="M489.494 283.164C507.58 283.175 526.333 282.982 544.378 283.335C547.561 291.83 550.652 302.52 553.515 311.332C566.04 314.873 576.719 316.273 589.704 321.24C597.068 313.644 604.187 305.892 611.758 298.509C625.055 302.699 649.029 317.092 660.243 325.036C657.708 334.291 652.879 345.976 649.85 355.767C658.218 363.075 666.674 371.22 674.895 378.234C681.668 376.353 701.417 372.035 707.697 371.392C716.348 381.426 730.614 406.866 736.884 418.584C728.41 426.578 718.581 434.048 709.882 442.327C713.348 452.983 715.66 461.849 718.338 472.791C729.277 475.874 742.277 478.806 752.84 482.396C752.982 492.558 752.874 502.957 752.878 513.132C752.881 520.001 753.101 528.469 752.609 535.216C743.112 538.673 728.894 542.006 718.799 544.595C717.853 551.696 712.833 568.177 710.607 575.331C717.354 582.275 729.519 593.246 736.927 599.685C730.466 614.596 715.489 637.053 705.913 650.045C696.118 647.711 677.418 642.349 668.122 638.939C661.343 647.081 654.16 653.683 646.42 660.872L658.876 693.205C646.959 702.179 624.106 716.389 610.392 722.114C602.594 714.627 594.97 706.139 587.435 698.268C577.456 702.029 565.296 705.05 554.88 707.339C551.427 716.114 548.371 727.489 545.041 736.795L544.32 738.051C540.397 739.68 497.75 738.961 490.111 738.945C486.799 728.65 483.605 718.316 480.532 707.947C471.005 705.805 456.992 701.366 447.868 697.953C443.842 703.672 430.769 716.339 425.272 722.507C412.398 718.124 387.297 701.875 376.264 693.369C379.153 684.881 383.544 671.137 387.302 663.288C378.446 654.812 373.077 650.023 364.705 640.728C353.811 644.622 341.71 647.989 330.567 651.46C319.551 637.435 307.043 618.14 299.865 601.868C307.62 595.081 317.655 586.742 324.81 579.611C321.487 568.691 318.598 557.643 316.15 546.494L281.495 537.066L281.514 482.821C293.232 480.236 307.422 477.02 318.885 473.649C319.686 463.558 322.672 453.057 325.689 443.399C317.377 436.212 306.371 426.502 298.64 418.827C306.694 401.17 315.36 387.125 325.767 370.991C336.196 372.879 349.962 376.788 360.407 379.507C368.587 370.037 375.442 363.912 384.985 355.819C381.578 347.274 377.004 333.134 374.641 324.263C382.886 318.652 413.87 301.348 423.13 298.455C430.683 305.179 438.245 314.306 445.746 321.487C454.535 317.431 471.172 314.223 481.171 312.087C483.665 302.889 486.563 292.225 489.494 283.164ZM491.752 323.305C472.554 326.196 460.442 330.182 442.595 336.943C435.691 329.575 426.801 320.246 420.365 312.619C409.739 317.21 399.953 322.325 389.715 327.662C392.976 339.228 396.567 349.636 400.542 360.996C386.691 371.523 375.645 380.389 365.363 394.993C354.317 391.179 343.019 387.942 331.811 384.62C328.195 391.263 324.492 397.859 320.703 404.405C319.105 407.148 315.517 412.829 314.306 415.485C322.72 423.722 332.453 431.399 340.724 439.493C337.21 451.769 333.796 463.629 331.866 476.269C331.534 478.444 331.093 481.05 330.612 483.19C318.874 486.919 305.727 488.527 294.03 491.682C293.928 502.133 293.584 517.919 294.348 528.156C304.941 531.306 315.939 533.661 326.577 536.661C329.168 550.717 332.673 564.589 337.07 578.189L343.566 578.491C336.187 587.487 322.651 597.843 315.899 606.221C321.251 615.684 329.195 628.685 335.742 637.357C345.213 634.244 360.039 628.944 369.303 626.516C380.493 639.093 390.09 648.709 402.534 660.288C399.353 669.841 395.133 679.344 392.075 688.64C401.38 695.086 411.826 702.68 422.177 707.133C427.097 701.804 440.212 687.002 445.057 682.942C455.107 686.322 475.617 694.363 485.493 693.547L486.353 692.892C486.422 688.46 477.148 686.372 473.541 685.416C433.139 674.712 398.932 650.489 373.879 616.167L404.953 589.502C409.317 585.743 419.487 577.17 422.962 573.064C409.053 572.791 395.141 572.69 381.23 572.759L368.294 586.172C373.371 596.61 374.437 608.306 360.142 611.027C354.941 611.004 351.013 610.211 347.168 606.161C344.405 603.246 342.954 599.328 343.152 595.317C343.662 584.606 351.924 581.919 360.989 581.875C365.171 577.411 374.363 566.571 378.358 563.327C391.517 563.147 410.172 563.853 422.822 562.96C430.252 545.321 451.011 544.405 458.676 562.553C459.483 564.463 459.673 567.801 459.983 569.997C465.526 573.826 471.55 577.541 477.376 580.971C491.127 589.069 504.831 598.072 518.96 605.485C531.389 595.905 549.676 586.843 562.216 577.317L562.395 545.049C527.861 522.169 491.329 502.994 456.51 480.642C456.377 463.856 456.365 447.068 456.474 430.282C474.611 418.282 493.525 406.738 511.482 394.683L511.498 352.465C503.148 347.023 499.492 338.196 505.023 329.689C511.754 319.339 532.282 323.826 533.179 336.729C533.703 344.284 528.761 348.921 523.471 352.944L523.591 394.928C543.566 407.545 563.608 420.056 583.716 432.46C590.54 429.772 594.876 429.064 601.964 432.256C602.98 432.724 603.982 433.221 604.969 433.747C620.604 419.845 637.106 406.6 652.505 392.843C629.863 364.482 600.732 347.99 566.124 338.646C562.418 337.646 541.828 333.466 541.151 332.899C536.44 328.951 534.049 317.17 521.836 315.841C510.646 314.624 506.778 319.688 498.142 324.36C500.535 316.624 504.389 305.309 505.794 297.566C510.453 297.556 531.858 297.868 535.111 295.604C530.46 291.887 507.53 292.646 500.838 293.018C497.572 302.798 494.722 313.365 491.752 323.305ZM701.617 390.363C708.458 400.062 713.416 411.882 721.584 420.447C717.472 405.705 711.335 396.665 702.751 384.177C692.982 385.656 678.884 390.257 669.607 390.692C665.121 385.943 654.374 373.816 648.484 371.78C656.041 380.074 663.239 388.195 668.812 398.033C654.739 402.683 645.147 411.672 634.132 421.237C626.163 428.157 617.604 435.344 610.339 442.922C623.75 443.154 637.371 442.753 650.695 443.152C655.416 439.132 662.05 432.452 666.339 427.847C663.908 423.214 662.119 419.152 663.74 413.697C664.8 410.122 667.338 407.17 670.715 405.587C674.264 403.935 678.329 403.783 681.991 405.166C695.255 410.036 696.955 433.29 675.029 432.513C669.167 438.788 661.553 447.288 655.155 452.84C641.167 452.671 624.435 452.053 610.517 452.766C607.372 458.474 604.354 462.953 597.575 464.922C592.991 466.229 588.069 465.544 584.016 463.037C577.347 458.977 575.723 453.708 574.103 446.767C568.801 442.578 557.001 435.626 550.993 431.988C540.188 425.444 528.303 417.68 517.289 411.651C504.172 419.402 486.767 430.755 474.574 439.553C474.465 450.016 474.459 460.48 474.555 470.943L581.243 536.633C580.929 552.789 581.702 570.262 581.071 586.027C575.577 590.19 567.585 594.952 561.579 598.772C549.118 606.58 536.758 614.547 524.502 622.673C524.465 636.437 525.042 658.116 523.972 671.249C528.796 674.623 533.692 678.243 534.83 684.511C537.317 698.219 518.44 708.306 508.285 698.787C498.98 690.064 501.864 677.775 512.419 671.833C512.515 655.509 512.514 639.184 512.418 622.859C505.182 617.737 495.709 612.328 488.036 607.625C475.681 600.004 463.377 592.3 451.124 584.515C441.978 587.413 436.736 587.959 428.5 582.282C414.515 594.245 399.396 607.026 386.047 619.627C415.649 654.15 448.911 674.143 493.667 682.789C494.692 691.307 497.068 700.005 504.243 705.536C509.356 709.484 515.872 711.147 522.252 710.133C528.583 709.069 534.193 705.436 537.755 700.095C541.071 695.224 542.209 690.701 542.574 685.003L542.71 682.946C624.945 673.683 685.129 607.014 692.92 526.388C693.701 518.312 694.823 509.268 693.982 501.223L685.72 500.396C684.067 488.396 683.285 479.581 680.596 467.6C680.118 483.608 683.489 498.661 682.912 516.941C680.696 561.175 663.69 600.961 630.569 630.944C609.527 649.916 584.094 663.353 556.564 670.045C550.575 671.562 543.626 673.191 537.522 673.776C537.34 661.155 536.843 643.97 537.499 631.602C557.061 619.052 577.27 607.28 596.694 594.696L596.561 575.855C585.973 568.005 586.04 560.884 597.056 553.306C597.14 547.812 597.146 542.317 597.073 536.823C589.596 532.533 560.782 516.503 557.481 509.678C557.458 508.052 557.178 508.7 558.176 507.604C563.988 505.419 598.79 528.341 605.903 532.664C605.932 539.263 605.837 546.317 606.019 552.876C614.322 560.968 617.303 567.792 605.758 575.042C605.496 579.837 605.358 585.472 605.85 590.247C610.311 587.821 615.183 584.422 619.471 581.586L619.64 547.701C619.667 543.367 620.043 536.2 619.777 532.158C602.848 520.939 583.46 509.859 565.966 499.119C555.253 492.542 538.586 481.757 527.789 476.21C520.337 478.111 514.055 479.28 506.933 475.194C492.666 467.007 497.787 443.619 513.871 441.498C529.371 439.454 534.247 448.08 537.109 461.099C560.334 476.074 585.113 489.985 608.449 504.862C616.459 509.968 630.559 517.901 637.475 523.128C637.476 542.689 638.189 567.522 637.282 586.706C613.357 605.97 579.176 625.289 552.823 642.045C552.844 646.746 552.899 651.447 552.989 656.148C591.136 645.701 627.816 620.962 647.358 586.09C669.935 545.799 670.3 506.357 661.76 462.574C667.46 456.578 673.375 450.741 679.492 444.727C689.008 435.373 697.9 432.6 698.29 417.534C698.699 401.746 679.555 399.769 676.381 395.243C679.087 392.984 697.072 390.509 701.617 390.363ZM702.033 486.147C710.042 487.954 729.909 492.156 736.845 494.829C736.972 504.712 736.983 514.597 736.876 524.48C725.861 527.28 714.785 529.573 703.758 532.316C700.846 547.079 697.696 561.263 692.699 575.485C691.888 577.795 690.994 580.439 690.414 582.806C698.119 589.616 706.503 596.783 713.844 603.903C708.997 612.762 702.545 622.483 697.208 631.205C688.983 628.873 678.382 624.908 670.372 623.421C673.046 624.751 675.603 626.077 678.374 627.197C685.656 629.949 692.977 632.599 700.332 635.148C706.841 623.9 714.472 613.239 720.837 601.943C712.88 594.838 704.349 587.509 696.6 580.248C698.129 574.263 700.34 568.501 702.022 562.551C704.52 553.716 706.031 544.873 707.212 535.775C718.495 532.974 730.248 529.274 741.433 526.836C741.527 514.666 741.542 502.495 741.479 490.325C731.208 488.038 717.548 484.41 707.432 481.326C705.892 473.76 700.312 445.465 693.885 442.311C693.621 442.872 693.358 443.433 693.094 443.994C694.468 458.134 700.259 472.04 702.033 486.147ZM593.491 334.203C585.439 331.696 578.247 328.86 570.047 326.528C561.548 324.111 550.91 322.36 542.898 319.467C544.072 321.797 545.29 324.434 546.728 326.579C559.248 328.885 569.935 330.788 582.129 334.821C586.722 336.405 591.549 338.211 596.127 339.701C600.001 335.619 613.465 321.015 617.349 317.971C628.093 323.067 639.283 329.765 650.197 334.127C639.854 324.853 628.055 317.343 615.273 311.898C608.357 319.091 600.687 327.43 593.491 334.203ZM592.233 439.829C589.474 440.037 587.045 441.724 585.886 444.236C584.728 446.748 585.022 449.691 586.655 451.924C588.288 454.157 591.003 455.33 593.748 454.988C597.852 454.476 600.798 450.784 600.387 446.669C599.976 442.554 596.357 439.519 592.233 439.829ZM360.724 601.869C363.834 600.296 365.101 596.514 363.566 593.384C362.031 590.254 358.265 588.94 355.116 590.437C353.045 591.421 351.663 593.444 351.498 595.731C351.334 598.019 352.413 600.218 354.322 601.489C356.232 602.759 358.677 602.905 360.724 601.869ZM438.724 560.748C435.996 561.599 433.941 563.859 433.352 566.656C432.763 569.452 433.733 572.349 435.886 574.228C438.04 576.107 441.042 576.674 443.733 575.711C447.776 574.264 449.92 569.849 448.557 565.776C447.193 561.704 442.824 559.469 438.724 560.748ZM519.701 344.231C522.813 343.234 524.604 339.979 523.78 336.817C522.957 333.655 519.805 331.688 516.602 332.336C514.368 332.789 512.567 334.439 511.921 336.626C511.276 338.812 511.892 341.177 513.522 342.77C515.152 344.364 517.53 344.926 519.701 344.231ZM500.934 728.96C512.364 728.975 524.031 728.415 535.151 728.464C533.85 726.299 533.409 725.194 530.922 724.707C522.817 723.118 511.887 723.74 503.59 723.915C502.12 719.206 496.966 702.645 493.406 700.755C494.67 709.676 498.623 720.02 500.934 728.96ZM520.767 693.274C524.415 692.228 526.556 688.456 525.586 684.787C524.615 681.118 520.888 678.899 517.2 679.794C514.745 680.39 512.805 682.266 512.127 684.699C511.449 687.132 512.139 689.741 513.932 691.521C515.725 693.3 518.339 693.97 520.767 693.274ZM679.748 424.199C681.794 423.371 683.234 421.505 683.517 419.316C683.8 417.128 682.881 414.957 681.112 413.636C679.344 412.316 677.001 412.052 674.983 412.945C671.931 414.295 670.527 417.844 671.828 420.916C673.129 423.989 676.654 425.45 679.748 424.199ZM611.319 703.565C612.323 704.359 612.986 705.21 614.465 704.829C621.187 703.1 639.305 693.494 642.222 687.535L641.891 686.845C636.581 686.592 617.845 698.717 611.546 701.812C609.209 699.411 592.183 680.263 591.225 680.019C583.627 682.625 554.734 689.963 551.315 692.498L551.169 693.141C559.791 697.124 585.678 681.883 592.789 685.313C598.151 687.899 606.688 698.893 611.319 703.565ZM603.234 568.828C605.447 567.882 606.539 565.375 605.723 563.11C604.908 560.846 602.467 559.611 600.159 560.294C598.543 560.773 597.325 562.108 596.995 563.761C596.665 565.414 597.277 567.113 598.586 568.176C599.894 569.239 601.683 569.49 603.234 568.828ZM519.276 468.475C529.706 462.679 526.704 450.868 515.672 451.653C505.538 456.911 508.826 466.704 519.276 468.475Z"/><path d="M474.213 337.645C475.499 337.471 475.428 337.436 476.674 337.755C473.475 339.641 459.808 343.281 455.064 345.094C432.185 353.733 411.427 367.184 394.195 384.537C369.393 409.303 354.945 437.834 348.597 472.056C346.056 485.756 344.466 493.446 344.456 507.688C345.359 508.219 347.302 509.052 348.332 509.526C350.492 518.105 353.13 555.454 359.13 559.278L360.079 558.825C362.541 553.78 357.639 532.402 356.755 525.678C345.251 438.155 406.82 356.88 494.271 344.272C501.298 361.033 499.711 366.381 499.558 384.401L442.044 421.901C441.952 428.508 441.838 436.199 442.29 442.725C452.839 450.168 451.442 457.339 442.02 464.579C441.807 469.902 441.934 475.361 441.984 480.699C455.158 489.197 469.1 497.122 481.989 506.065L479.445 513.686C471.061 509.025 462.692 503.691 454.484 498.688C447.422 494.382 439.949 490.044 433.218 485.308L433.328 464.422L431.976 463.271C423.048 455.762 424.916 449.665 433.35 443.182L433.437 427.873C428.902 430.61 424.428 433.449 420.02 436.387C419.455 451.41 419.447 473.468 419.894 488.466C425.505 492.534 432.578 496.786 438.508 500.559C455.255 511.08 472.221 521.25 489.394 531.061C495.467 534.686 501.571 538.257 507.708 541.774C519.829 536.888 534.13 537.087 537.297 552.596C538.409 558.273 537.216 564.16 533.983 568.958C525.833 580.821 507.907 578.481 501.707 565.929C500.14 562.758 499.754 560.416 499.19 557.008C492.848 552.202 478.55 544.898 471.351 540.423C449.178 526.64 423.573 513.346 402.051 498.715L402.112 429.613C429.596 410.302 454.851 394.617 482.999 376.855L482.966 362.587C427.206 379.395 383.311 419.228 373.148 478.246C368.404 505.791 371.337 527.307 378.62 553.652C372.326 559.809 363.069 569.23 356.937 574.691C352.247 575.531 349.438 576.239 344.909 577.671C339.484 561.942 334.865 547.245 332.283 530.689C321.601 528.018 310.826 525.897 300.135 523.199L299.904 495.158C311.519 492.625 328.196 489.253 339.718 487.957C343.565 456.695 353.062 427.719 371.558 401.926C395.444 368.62 433.639 344.216 474.213 337.645ZM520.763 565.502C525.139 564.639 527.982 560.385 527.105 556.012C526.227 551.638 521.964 548.81 517.593 549.702C513.244 550.59 510.431 554.829 511.305 559.181C512.178 563.534 516.407 566.36 520.763 565.502Z"/><path d="M540.107 344.341C542.116 344.349 544.313 344.598 546.304 344.958C574.966 350.141 603.806 362.061 625.904 381.247C630.089 384.88 635.194 389.445 638.394 393.854L626.806 403.112C600.889 376.064 582.606 371.115 549.702 359.586L548.678 359.734C547.224 362.085 547.652 374.743 547.798 378.019C559.668 384.378 570.591 391.859 582.365 398.169C599.681 375.509 619.681 406.971 600.191 417.246C593.739 420.647 582.093 410.745 575.921 407.312C563.317 400.301 550.108 390.528 537.063 384.166L536.455 383.873C536.228 381.172 536.199 378.229 536.286 375.511C536.671 363.512 534.449 355.501 540.107 344.341ZM596.699 408.765C599.224 407.725 600.455 404.857 599.468 402.31C598.481 399.763 595.639 398.473 593.072 399.406C591.363 400.027 590.123 401.524 589.832 403.319C589.54 405.114 590.243 406.927 591.667 408.057C593.092 409.187 595.017 409.458 596.699 408.765Z"/><path d="M407.894 662.869C419.332 668.262 431.903 675.297 443.127 681.286C440.043 685.58 433.576 692.005 429.797 695.961C427.34 698.482 425.801 699.845 423.073 702.084C418.142 699.359 403.483 690.445 399.767 686.714C401.533 679.521 405.274 669.818 407.894 662.869Z"/><path d="M418.011 318.956C423.685 323.672 431.193 333.512 435.717 339.622C428.606 344.257 419.042 348.491 410.884 353.707C408.929 354.989 406.904 356.574 405.017 357.985C402.719 348.604 398.914 338.885 396.939 329.675C403.898 325.976 410.923 322.402 418.011 318.956Z"/><path d="M336.3 393.089C341.779 394.566 356.745 400.21 362.159 402.402C359.222 408.597 351.327 421.716 347.592 428.738C346.795 430.349 346.71 430.679 345.392 431.98C342.433 431.369 325.989 416.564 324.962 413.6C326.046 409.921 333.839 397.272 336.3 393.089Z"/><path d="M336.022 595.357C336.551 595.544 337.072 595.746 337.21 596.452C338.228 601.624 338.75 606.337 341.867 610.871C348.114 619.959 361.224 616.164 368.633 617.221C367.864 621.292 356.305 625.324 352.627 626.659C347.998 628.219 343.446 629.871 338.665 630.88C333.399 623.448 328.043 614.766 322.805 607.091C325.587 604.32 333.019 597.589 336.022 595.357Z"/><path d="M385.26 582.23C387.948 583.085 390.459 586.786 392.284 589.05C389.418 592.212 384.627 595.849 381.259 598.43C378.72 598.221 376.003 593.584 374.661 591.581C378.039 587.94 381.427 585.351 385.26 582.23Z"/><path d="M437.606 598.603C447.489 597.543 451.141 600.531 455.647 608.774C458.105 610.035 460.714 611.528 463.072 612.994C475.113 620.48 487.628 627.581 499.475 635.346L499.496 673.25C492.14 672.754 483.693 670.591 476.528 668.612C446.501 660.32 424.724 646.25 403.057 624.169C397.805 618.299 402.294 616.565 406.619 611.686C411.616 615.221 420.546 624.032 426.436 628.578C445.916 643.61 463.985 650.295 487.26 656.339C487.005 650.876 487.06 644.573 486.997 639.05L453.947 619.241C452.362 620.806 450.873 622.258 448.883 623.313C445.427 625.143 441.387 625.526 437.649 624.377C434.042 623.269 430.928 620.758 429.274 617.343C427.768 614.175 427.592 610.536 428.787 607.238C430.384 602.801 433.511 600.473 437.606 598.603Z"/><path d="M654.695 415.347C657.545 416.366 659.064 420.231 660.497 422.998C658.138 426.085 653.108 430.642 649.835 432.661C647.409 430.488 644.832 427.676 642.995 424.996C646.852 421.964 650.823 418.487 654.695 415.347Z"/><path fill="white" fill-opacity="1" d="M591.225 680.019C592.183 680.263 609.209 699.411 611.546 701.812C617.845 698.717 636.581 686.592 641.891 686.845L642.222 687.535C639.305 693.494 621.187 703.1 614.465 704.829C612.986 705.21 612.323 704.359 611.319 703.565C606.688 698.893 598.151 687.899 592.789 685.313C585.678 681.883 559.791 697.124 551.169 693.141L551.315 692.498C554.734 689.963 583.627 682.625 591.225 680.019Z"/><path fill="white" fill-opacity="1" d="M493.406 700.755C496.966 702.645 502.12 719.206 503.59 723.915C511.887 723.74 522.817 723.118 530.922 724.707C533.409 725.194 533.85 726.299 535.151 728.464C524.031 728.415 512.364 728.975 500.934 728.96C498.623 720.02 494.67 709.676 493.406 700.755Z"/></svg>